<?xml version="1.0" encoding="utf-8"?>
<!-- Uploaded to: SVG Repo, www.svgrepo.com, Generator: SVG Repo Mixer Tools -->
<svg width="800px" height="800px" viewBox="0 0 1024 1024" class="icon"  version="1.1" xmlns="http://www.w3.org/2000/svg"><path d="M436 59.2L32 392v576c0 13.6 10.4 24 24 24h912c13.6 0 24-10.4 24-24V392L588 59.2c-44-36-108-36-152 0z" fill="#F1ED7B" /><path d="M968 1000H56c-17.6 0-32-14.4-32-32V392c0-2.4 0.8-4.8 3.2-6.4L430.4 53.6C453.6 34.4 482.4 24 512 24s58.4 10.4 81.6 29.6l404 332.8c1.6 1.6 3.2 4 3.2 6.4v576c-0.8 16.8-15.2 31.2-32.8 31.2zM40 396V968c0 8.8 7.2 16 16 16h912c8.8 0 16-7.2 16-16V396L583.2 65.6C563.2 48.8 537.6 40 512 40s-51.2 8.8-71.2 25.6L40 396z" fill="#6A576D" /><path d="M436 59.2L32 392v576c0 13.6 10.4 24 24 24h912c13.6 0 24-10.4 24-24V392L588 59.2c-44-36-108-36-152 0z" fill="#0D1014" /><path d="M947.2 839.2H76.8V212c0-35.2 28.8-64 64-64h742.4c35.2 0 64 28.8 64 64v627.2z" fill="#FFFFFF" /><path d="M512 624L76.8 363.2v470.4h870.4V363.2z" fill="#121519" /><path d="M947.2 841.6H76.8c-4.8 0-8-3.2-8-8V206.4c0-40 32-72 72-72h742.4c40 0 72 32 72 72v627.2c0 4-3.2 8-8 8z m-862.4-16h854.4V206.4c0-31.2-24.8-56-56-56H140.8c-31.2 0-56 24.8-56 56v619.2z" fill="#6A576D" /><path d="M968 992H56c-13.6 0-24-10.4-24-24l960-576v576c0 13.6-10.4 24-24 24z" fill="#F1ED7B" /><path d="M968 992H56c-13.6 0-24-10.4-24-24l960-576v576c0 13.6-10.4 24-24 24z" fill="#0D1014" /><path d="M968 1000H56c-17.6 0-32-14.4-32-32 0-3.2 1.6-5.6 4-7.2l960-576c2.4-1.6 5.6-1.6 8 0s4 4 4 7.2v576c0 17.6-14.4 32-32 32zM40.8 972c1.6 6.4 8 12 15.2 12h912c8.8 0 16-7.2 16-16V406.4L40.8 972z" fill="#6A576D" /><path d="M968 992H56c-13.6 0-24-10.4-24-24V392l960 576c0 13.6-10.4 24-24 24z" fill="#F1ED7B" /><path d="M968 1000H56c-17.6 0-32-14.4-32-32V392c0-3.2 1.6-5.6 4-7.2s5.6-1.6 8 0l960 576c2.4 1.6 4 4 4 7.2 0 17.6-14.4 32-32 32zM40 406.4V968c0 8.8 7.2 16 16 16h912c7.2 0 13.6-4.8 15.2-12L40 406.4z" fill="#6A576D" /><path d="M968 1000H56c-17.6 0-32-14.4-32-32V392c0-3.2 1.6-5.6 4-7.2s5.6-1.6 8 0l960 576c2.4 1.6 4 4 4 7.2 0 17.6-14.4 32-32 32zM40 406.4V968c0 8.8 7.2 16 16 16h912c7.2 0 13.6-4.8 15.2-12L40 406.4z" fill="#6A576D" /><path d="M406.4 286.4h240v16h-240z" fill="#6A576D" /><path d="M326.4 366.4h400v16h-400z" fill="#6A576D" /><path d="M326.4 446.4h400v16h-400z" fill="#6A576D" /></svg>