<?xml version="1.0" encoding="utf-8"?>
<!-- Uploaded to: SVG Repo, www.svgrepo.com, Generator: SVG Repo Mixer Tools -->
<svg width="800px" height="800px" viewBox="0 0 1024 1024" class="icon"  version="1.1" xmlns="http://www.w3.org/2000/svg"><path d="M286.4 520C151.2 520 41.6 410.4 41.6 275.2S151.2 30.4 286.4 30.4s244.8 109.6 244.8 244.8h-16c0-126.4-102.4-228.8-228.8-228.8S57.6 148.8 57.6 275.2 160 504 286.4 504v16z" fill="#6A576D" /><path d="M755.2 520v-16c126.4 0 228.8-102.4 228.8-228.8S881.6 46.4 755.2 46.4 526.4 148.8 526.4 275.2h-16c0-135.2 109.6-244.8 244.8-244.8S1000 140 1000 275.2 890.4 520 755.2 520z" fill="#6A576D" /><path d="M742.4 993.6c-135.2 0-244.8-109.6-244.8-244.8h16c0 126.4 102.4 228.8 228.8 228.8s228.8-102.4 228.8-228.8S868.8 520 742.4 520v-16c135.2 0 244.8 109.6 244.8 244.8s-109.6 244.8-244.8 244.8z" fill="#6A576D" /><path d="M268.8 993.6C133.6 993.6 24 884 24 748.8S133.6 504 268.8 504v16C142.4 520 40 622.4 40 748.8s102.4 228.8 228.8 228.8 228.8-102.4 228.8-228.8h16c0 135.2-109.6 244.8-244.8 244.8z" fill="#6A576D" /><path d="M512 32C247.2 32 32 247.2 32 512s215.2 480 480 480 480-215.2 480-480S776.8 32 512 32z m0 684.8c-112.8 0-204.8-92-204.8-204.8S399.2 307.2 512 307.2 716.8 399.2 716.8 512 624.8 716.8 512 716.8z" fill="#FFFFFF" /><path d="M625.6 978.4l-20.8-283.2s0-0.8-0.8-0.8c-28 13.6-59.2 21.6-92 21.6-34.4 0-66.4-8.8-95.2-23.2 0 0-0.8 0-0.8 0.8l-20.8 284c37.6 9.6 76 14.4 116.8 14.4 39.2 0 76.8-4.8 113.6-13.6zM992 512c0-39.2-4.8-78.4-13.6-115.2L696 417.6c-0.8 0-0.8 0.8-1.6 0.8 14.4 28 22.4 59.2 22.4 92.8 0 33.6-8 65.6-23.2 93.6l284 20.8c9.6-35.2 14.4-73.6 14.4-113.6zM396 46.4l20.8 284.8c28.8-15.2 60.8-23.2 95.2-23.2 32.8 0 64.8 8 92 22.4l20.8-284C588.8 36.8 551.2 32 512 32c-40 0-79.2 4.8-116 14.4zM32 512c0 39.2 4.8 77.6 13.6 114.4l284-20.8c-14.4-28-23.2-60-23.2-93.6 0-33.6 8-65.6 22.4-93.6L45.6 397.6C36.8 434.4 32 472.8 32 512z" fill="#EC7BB0" /><path d="M992 512c0-39.2-4.8-78.4-13.6-115.2L696 417.6c-0.8 0-0.8 0.8-1.6 0.8 14.4 28 22.4 59.2 22.4 92.8 0 33.6-8 65.6-23.2 93.6l284 20.8c9.6-35.2 14.4-73.6 14.4-113.6zM396 46.4l20.8 284.8c28.8-15.2 60.8-23.2 95.2-23.2 32.8 0 64.8 8 92 22.4l20.8-284C588.8 36.8 551.2 32 512 32c-40 0-79.2 4.8-116 14.4z" fill="#EC7BB0" /><path d="M70.4 512c0-258.4 204.8-469.6 460.8-479.2C524.8 32 518.4 32 512 32 247.2 32 32 247.2 32 512s215.2 480 480 480c6.4 0 12.8 0 19.2-0.8-256-9.6-460.8-220.8-460.8-479.2z" fill="#FDFDFC" /><path d="M473.6 307.2c6.4 0 12.8 0 19.2 0.8-104 9.6-185.6 97.6-185.6 204s81.6 194.4 185.6 204c-6.4 0.8-12.8 0.8-19.2 0.8-112.8 0-204.8-92-204.8-204.8s92-204.8 204.8-204.8z" fill="#0E1115" /><path d="M512 32c-6.4 0-12.8 0-19.2 0.8 256 10.4 460.8 220.8 460.8 479.2s-204.8 469.6-460.8 479.2c6.4 0 12.8 0.8 19.2 0.8 264.8 0 480-215.2 480-480S776.8 32 512 32z" fill="#0E1115" /><path d="M550.4 307.2c-6.4 0-12.8 0-19.2 0.8 104 9.6 185.6 97.6 185.6 204S635.2 706.4 531.2 716c6.4 0.8 12.8 0.8 19.2 0.8 112.8 0 204.8-92 204.8-204.8S663.2 307.2 550.4 307.2z" fill="#FDFDFC" /><path d="M512 1000C243.2 1000 24 780.8 24 512S243.2 24 512 24s488 219.2 488 488-219.2 488-488 488zM512 40C252 40 40 252 40 512s212 472 472 472 472-212 472-472S772 40 512 40z m0 684.8c-117.6 0-212.8-95.2-212.8-212.8S394.4 299.2 512 299.2 724.8 394.4 724.8 512 629.6 724.8 512 724.8z m0-409.6c-108.8 0-196.8 88-196.8 196.8s88 196.8 196.8 196.8 196.8-88 196.8-196.8-88-196.8-196.8-196.8z" fill="#6A576D" /><path d="M984 635.2l-294.4-22.4-8-1.6 4.8-9.6c14.4-28 21.6-58.4 21.6-90.4 0-31.2-7.2-61.6-21.6-89.6l-3.2-5.6 4.8-4c0.8-0.8 2.4-2.4 5.6-2.4l289.6-21.6 1.6 6.4c9.6 38.4 14.4 77.6 14.4 116.8s-4.8 78.4-14.4 116.8l-0.8 7.2z m-277.6-36.8l265.6 20c8-35.2 12-70.4 12-106.4s-4-71.2-12-106.4l-265.6 20c12 27.2 18.4 56.8 18.4 86.4 0 30.4-6.4 59.2-18.4 86.4zM409.6 343.2L387.2 40l6.4-1.6c76-19.2 156.8-19.2 233.6-0.8l6.4 1.6-22.4 302.4-10.4-5.6c-28-14.4-57.6-21.6-88.8-21.6-32 0-63.2 8-91.2 22.4l-11.2 6.4z m-5.6-290.4L424 318.4c28-12.8 57.6-19.2 88-19.2 29.6 0 58.4 6.4 84.8 17.6l20-265.6c-70.4-15.2-143.2-15.2-212.8 1.6zM512 1000c-40 0-80-4.8-118.4-14.4l-6.4-1.6 21.6-293.6 1.6-1.6 3.2-7.2 7.2 4c28.8 15.2 59.2 22.4 91.2 22.4 31.2 0 60.8-7.2 88-20.8l7.2-4 3.2 6.4 0.8 0.8 0.8 3.2 21.6 289.6-6.4 1.6c-37.6 10.4-76.8 15.2-115.2 15.2z m-108-28.8c69.6 16 142.4 16.8 212.8 0.8l-20-265.6c-27.2 12-56 17.6-84.8 17.6-31.2 0-60.8-6.4-88-19.2l-20 266.4zM40 635.2l-1.6-6.4C28.8 590.4 24 551.2 24 512s4.8-78.4 14.4-116.8l1.6-6.4 302.4 23.2-5.6 10.4c-14.4 28-21.6 58.4-21.6 89.6 0 31.2 7.2 61.6 21.6 90.4l5.6 10.4L40 635.2z m12-229.6C44 440.8 40 476 40 512s4 71.2 12 106.4l265.6-20c-12-27.2-18.4-56.8-18.4-86.4 0-30.4 6.4-59.2 18.4-86.4L52 405.6z" fill="#6A576D" /></svg>