<?xml version="1.0" encoding="utf-8"?>
<!-- Uploaded to: SVG Repo, www.svgrepo.com, Generator: SVG Repo Mixer Tools -->
<svg width="800px" height="800px" viewBox="0 0 1024 1024" class="icon"  version="1.1" xmlns="http://www.w3.org/2000/svg"><path d="M482.4 512m-450.4 0a450.4 450.4 0 1 0 900.8 0 450.4 450.4 0 1 0-900.8 0Z" fill="#CCBECC" /><path d="M482.4 970.4C229.6 970.4 24 764.8 24 512S229.6 53.6 482.4 53.6s458.4 205.6 458.4 458.4-205.6 458.4-458.4 458.4z m0-900.8C238.4 69.6 40 268 40 512c0 244 198.4 442.4 442.4 442.4s442.4-198.4 442.4-442.4c0-244-198.4-442.4-442.4-442.4z" fill="#6A576D" /><path d="M482.4 837.6c-179.2 0-325.6-145.6-325.6-325.6 0-179.2 145.6-325.6 325.6-325.6C661.6 186.4 808 332.8 808 512c0 179.2-146.4 325.6-325.6 325.6z" fill="#FFFFFF" /><path d="M482.4 845.6c-184 0-333.6-149.6-333.6-333.6s149.6-333.6 333.6-333.6S816 328 816 512s-149.6 333.6-333.6 333.6z m0-651.2c-175.2 0-317.6 142.4-317.6 317.6s142.4 317.6 317.6 317.6S800 687.2 800 512 657.6 194.4 482.4 194.4z" fill="#6A576D" /><path d="M482.4 712c-110.4 0-200-89.6-200-200s89.6-200 200-200 200 89.6 200 200-89.6 200-200 200z" fill="#F1ED7B" /><path d="M482.4 720c-114.4 0-208-93.6-208-208s93.6-208 208-208 208 93.6 208 208-92.8 208-208 208z m0-400c-105.6 0-192 86.4-192 192s86.4 192 192 192 192-86.4 192-192-86.4-192-192-192z" fill="#6A576D" /><path d="M482.4 587.2c-41.6 0-75.2-33.6-75.2-75.2s33.6-75.2 75.2-75.2 75.2 33.6 75.2 75.2-33.6 75.2-75.2 75.2z" fill="#EC7BB0" /><path d="M482.4 595.2c-45.6 0-83.2-37.6-83.2-83.2s37.6-83.2 83.2-83.2S565.6 466.4 565.6 512 528 595.2 482.4 595.2z m0-150.4c-36.8 0-67.2 30.4-67.2 67.2s30.4 67.2 67.2 67.2 67.2-30.4 67.2-67.2-30.4-67.2-67.2-67.2z" fill="#6A576D" /><path d="M904.8 884.8l60-22.4-45.6-34.4-37.6 5.6 25.6-14.4-72.8-56-49.6 12-299.2-269.6c-3.2-3.2-6.4-4.8-9.6-1.6-2.4 2.4-1.6 5.6 0 9.6l291.2 280-8.8 50.4 27.2 30.4 8.8-25.6-0.8 34.4 73.6 84.8 18.4-61.6-4.8-4.8 19.2 18.4c2.4 2.4 8.8-0.8 14.4-7.2 5.6-5.6 8-12.8 6.4-14.4l-16-13.6z" fill="#0D1014" /><path d="M957.6 243.2L484.8 514.4c-3.2 1.6-7.2 0.8-9.6-2.4-1.6-3.2-0.8-7.2 2.4-9.6l465.6-283.2 14.4 24z" fill="#FFFFFF" /><path d="M481.6 523.2c-5.6 0-10.4-3.2-12.8-7.2-4-7.2-1.6-16 5.6-20.8l465.6-283.2c1.6-0.8 4-1.6 6.4-0.8 2.4 0.8 4 1.6 4.8 4l14.4 24c0.8 1.6 1.6 4 0.8 6.4-0.8 2.4-1.6 4-4 4.8L488.8 521.6c-2.4 0.8-4.8 1.6-7.2 1.6z m459.2-292.8L554.4 464.8l392-225.6-5.6-8.8z" fill="#6A576D" /><path d="M924 168.8l-43.2 32-4.8 34.4-6.4-26.4-68.8 51.2-2.4 49.6 129.6-79.2z" fill="#EC7BB0" /><path d="M798.4 315.2c-1.6 0-3.2 0-4-0.8-2.4-1.6-4-4-4-7.2l2.4-48c0-2.4 1.6-4.8 3.2-5.6l68.8-51.2c2.4-1.6 4.8-1.6 7.2-0.8v-2.4c0-2.4 1.6-4 3.2-5.6l43.2-32c2.4-1.6 5.6-2.4 8-0.8 2.4 1.6 4.8 4 4.8 6.4l4 59.2c0 3.2-1.6 5.6-4 7.2l-129.6 79.2c-0.8 2.4-2.4 2.4-3.2 2.4z m10.4-51.2l-1.6 28.8L920 224l-3.2-40-28.8 20.8-4.8 31.2c-0.8 4-4 6.4-7.2 7.2-4 0-7.2-2.4-8-6.4l-3.2-14.4-56 41.6z" fill="#6A576D" /><path d="M867.2 318.4l30.4 9.6 94.4-44-50.4-32-131.2 76 42.4 20 35.2-16z" fill="#EC7BB0" /><path d="M852.8 356c-0.8 0-2.4 0-3.2-0.8l-42.4-20.8c-2.4-1.6-4.8-4-4.8-7.2s1.6-5.6 4-7.2l131.2-76c2.4-1.6 5.6-1.6 8 0l50.4 32c2.4 1.6 4 4 4 7.2s-1.6 5.6-4.8 6.4l-94.4 44c-1.6 0.8-4 0.8-5.6 0-0.8 1.6-2.4 3.2-4 4l-34.4 16c-1.6 2.4-2.4 2.4-4 2.4z m-24.8-28.8l25.6 12 18.4-8.8-8.8-6.4c-3.2-2.4-4-6.4-2.4-10.4s5.6-5.6 9.6-4l27.2 8.8 78.4-36-33.6-21.6-114.4 66.4z" fill="#6A576D" /></svg>