<?xml version="1.0" encoding="utf-8"?>
<!-- Uploaded to: SVG Repo, www.svgrepo.com, Generator: SVG Repo Mixer Tools -->
<svg width="800px" height="800px" viewBox="0 0 1024 1024" class="icon"  version="1.1" xmlns="http://www.w3.org/2000/svg"><path d="M148 136.8h485.6c51.2 0 92.8 41.6 92.8 92.8V600h-448L124.8 722.4V599.2C73.6 599.2 32 557.6 32 506.4V252c0-64 52-115.2 116-115.2z" fill="#C1D840" /><path d="M116.8 739.2V607.2C64.8 603.2 24 559.2 24 506.4V252C24 184 79.2 128.8 148 128.8h485.6c55.2 0 100.8 44.8 100.8 100.8V608H281.6L116.8 739.2z m31.2-594.4C88 144.8 40 192.8 40 252v254.4c0 46.4 37.6 84.8 84.8 84.8h8v114.4l143.2-114.4h442.4V228.8c0-46.4-37.6-84.8-84.8-84.8H148z" fill="#6A576D" /><path d="M124.8 730.4c-0.8 0-2.4 0-3.2-0.8-2.4-1.6-4.8-4-4.8-7.2V607.2C64.8 603.2 24 559.2 24 506.4V252C24 184 79.2 128.8 148 128.8h485.6c55.2 0 100.8 44.8 100.8 100.8V600c0 4.8-3.2 8-8 8H281.6l-152 121.6c-1.6 0.8-3.2 0.8-4.8 0.8z m23.2-585.6C88 144.8 40 192.8 40 252v254.4c0 46.4 37.6 84.8 84.8 84.8 4.8 0 8 3.2 8 8v106.4l141.6-112.8c1.6-0.8 3.2-1.6 4.8-1.6h439.2V228.8c0-46.4-37.6-84.8-84.8-84.8H148z" fill="#6A576D" /><path d="M899.2 301.6H390.4c-51.2 0-92.8 41.6-92.8 92.8V672c0 51.2 41.6 92.8 92.8 92.8h354.4l154.4 123.2V764c51.2 0 92.8-41.6 92.8-92.8V393.6c0-50.4-41.6-92-92.8-92z" fill="#CCBECC" /><path d="M899.2 895.2c-1.6 0-3.2-0.8-4.8-1.6l-152-121.6h-352c-55.2 0-100.8-44.8-100.8-100.8V393.6c0-55.2 44.8-100.8 100.8-100.8h508.8c55.2 0 100.8 44.8 100.8 100.8v277.6c0 52.8-40.8 96-92.8 100v116c0 3.2-1.6 5.6-4.8 7.2-0.8 0.8-1.6 0.8-3.2 0.8zM390.4 309.6c-46.4 0-84.8 37.6-84.8 84.8V672c0 46.4 37.6 84.8 84.8 84.8h354.4c1.6 0 3.2 0.8 4.8 1.6l141.6 112.8V764c0-4.8 3.2-8 8-8 46.4 0 84.8-37.6 84.8-84.8V393.6c0-46.4-37.6-84.8-84.8-84.8H390.4z" fill="#6A576D" /><path d="M899.2 895.2c-1.6 0-3.2-0.8-4.8-1.6l-152-121.6h-352c-55.2 0-100.8-44.8-100.8-100.8V393.6c0-55.2 44.8-100.8 100.8-100.8h508.8c55.2 0 100.8 44.8 100.8 100.8v277.6c0 52.8-40.8 96-92.8 100v116c0 3.2-1.6 5.6-4.8 7.2-0.8 0.8-1.6 0.8-3.2 0.8zM390.4 309.6c-46.4 0-84.8 37.6-84.8 84.8V672c0 46.4 37.6 84.8 84.8 84.8h354.4c1.6 0 3.2 0.8 4.8 1.6l141.6 112.8V764c0-4.8 3.2-8 8-8 46.4 0 84.8-37.6 84.8-84.8V393.6c0-46.4-37.6-84.8-84.8-84.8H390.4z" fill="#6A576D" /><path d="M490.4 536.8m-38.4 0a38.4 38.4 0 1 0 76.8 0 38.4 38.4 0 1 0-76.8 0Z" fill="#FFFFFF" /><path d="M644.8 536.8m-38.4 0a38.4 38.4 0 1 0 76.8 0 38.4 38.4 0 1 0-76.8 0Z" fill="#FFFFFF" /><path d="M799.2 536.8m-38.4 0a38.4 38.4 0 1 0 76.8 0 38.4 38.4 0 1 0-76.8 0Z" fill="#FFFFFF" /><path d="M490.4 583.2c-25.6 0-46.4-20.8-46.4-46.4s20.8-46.4 46.4-46.4 46.4 20.8 46.4 46.4-20 46.4-46.4 46.4z m0-76.8c-16.8 0-30.4 13.6-30.4 30.4s13.6 30.4 30.4 30.4 30.4-13.6 30.4-30.4-12.8-30.4-30.4-30.4zM644.8 583.2c-25.6 0-46.4-20.8-46.4-46.4s20.8-46.4 46.4-46.4c25.6 0 46.4 20.8 46.4 46.4s-20.8 46.4-46.4 46.4z m0-76.8c-16.8 0-30.4 13.6-30.4 30.4s13.6 30.4 30.4 30.4c16.8 0 30.4-13.6 30.4-30.4s-13.6-30.4-30.4-30.4zM799.2 583.2c-25.6 0-46.4-20.8-46.4-46.4s20.8-46.4 46.4-46.4 46.4 20.8 46.4 46.4-20.8 46.4-46.4 46.4z m0-76.8c-16.8 0-30.4 13.6-30.4 30.4s13.6 30.4 30.4 30.4 30.4-13.6 30.4-30.4-13.6-30.4-30.4-30.4z" fill="#6A576D" /></svg>